<svg width="119" height="44" viewBox="0 0 119 44" fill="none" xmlns="http://www.w3.org/2000/svg">
<g clip-path="url(#clip0_41_318)">
<path d="M100 18C103.866 18 107 14.866 107 11C107 7.13401 103.866 4 100 4C96.134 4 93 7.13401 93 11C93 14.866 96.134 18 100 18Z" fill="#642DFB"/>
<path d="M12.2452 40.6176H0V15H12.2452C20.396 15 25.5519 19.7794 25.5519 27.8088C25.5519 35.8382 20.396 40.6176 12.2452 40.6176ZM12.2452 20.1618H5.68662V35.4559H12.2452C17.4011 35.4559 19.4862 33.9647 19.4862 27.8088C19.4862 21.6529 17.4011 20.1618 12.2452 20.1618Z" fill="#160442"/>
<path d="M33.857 41C29.7627 41 27.2985 39.0882 27.2985 35.8765C27.2985 33.0471 29.3836 31.2882 33.44 30.8676L41.5908 30.0265V29.3C41.5908 26.8147 40.4914 26.1265 37.4586 26.1265C34.5773 26.1265 33.4021 26.8912 33.4021 29.0706V29.2235H27.6776V29.1088C27.6776 24.3676 31.6203 21.0794 37.8756 21.0794C44.2067 21.0794 47.2016 24.3676 47.2016 29.3765V40.6176H41.8941V36.2206H41.5908C40.7189 39.2029 38.0651 41 33.857 41ZM33.023 35.4941C33.023 36.5265 33.8191 36.9471 35.4872 36.9471C39.3541 36.9471 41.4392 36.0294 41.5908 33.3147L34.9944 34.0794C33.6296 34.1941 33.023 34.5765 33.023 35.4941Z" fill="#160442"/>
<path d="M55.7707 40.6176H50.0841V21.4618H55.3537V27.35H55.6949C56.1877 24.1382 58.4623 21.0794 63.4287 21.0794C68.6224 21.0794 71.0867 24.4441 71.0867 28.6882V40.6176H65.4V30.6C65.4 27.5412 64.149 26.2412 60.6612 26.2412C57.0596 26.2412 55.7707 27.6941 55.7707 30.9441V40.6176Z" fill="#160442"/>
<path d="M79.6501 40.6176H73.9634V15H79.6501V28.5735H83.9719L88.8245 21.4618H95.5726L88.6349 30.7147L95.4589 40.6176H88.7487L84.0098 33.6971H79.6501V40.6176Z" fill="#160442"/>
<path d="M102.641 40.6176H96.9543V21.4618H102.641V40.6176Z" fill="#160442"/>
<path d="M119 40.6176H114.299C109.864 40.6176 107.172 38.5147 107.172 33.6971V26.2029H104.177V21.4618H107.172V17.7529H112.858V21.4618H119V26.2029H112.858V33.0471C112.858 34.9588 113.579 35.4559 115.588 35.4559H119V40.6176Z" fill="#160442"/>
</g>
<defs>
<clipPath id="clip0_41_318">
<rect width="119" height="43" fill="white" transform="translate(0 0.5)"/>
</clipPath>
</defs>
</svg>
